<svg xmlns="http://www.w3.org/2000/svg" xmlns:xlink="http://www.w3.org/1999/xlink" viewBox="0 0 435.81 435.81"><defs><style>.cls-1{fill:url(#linear-gradient);}</style><linearGradient id="linear-gradient" x1="217.91" x2="217.91" y2="435.81" gradientUnits="userSpaceOnUse"><stop offset="0" stop-color="#ff6c11"/><stop offset="0.19" stop-color="#ff5f26"/><stop offset="0.53" stop-color="#ff4a48"/><stop offset="0.81" stop-color="#ff3d5d"/><stop offset="1" stop-color="#ff3864"/></linearGradient></defs><title>Asset 1</title><g id="Layer_2" data-name="Layer 2"><g id="Layer_1-2" data-name="Layer 1"><path class="cls-1" d="M.91,237.81a216.46,216.46,0,0,0,3.53,24.06H431.37a216.46,216.46,0,0,0,3.53-24.06Z"/><path class="cls-1" d="M435.81,217.91C435.81,97.56,338.25,0,217.91,0S0,97.56,0,217.91q0,8,.58,15.9H435.23Q435.8,225.94,435.81,217.91Z"/><path class="cls-1" d="M66,374.08H369.84A217.78,217.78,0,0,0,384.77,358H51Q58.11,366.43,66,374.08Z"/><path class="cls-1" d="M41.65,346H394.16Q400.51,337.32,406,328H29.82Q35.3,337.31,41.65,346Z"/><path class="cls-1" d="M12.2,289.92H423.61a215.59,215.59,0,0,0,6.44-22.05H5.76A215.59,215.59,0,0,0,12.2,289.92Z"/><path class="cls-1" d="M24.3,318H411.52a218.55,218.55,0,0,0,9.13-20.05H15.16A216,216,0,0,0,24.3,318Z"/><path class="cls-1" d="M101.5,402.13H334.31A215.4,215.4,0,0,0,354,388.08H81.82A215.4,215.4,0,0,0,101.5,402.13Z"/><path class="cls-1" d="M217.91,435.81A217.16,217.16,0,0,0,304,418.13H131.83A217.09,217.09,0,0,0,217.91,435.81Z"/></g></g></svg>